<mxfile host="app.diagrams.net" modified="2023-11-20T05:38:52.007Z" agent="Mozilla/5.0 (Windows NT 10.0; Win64; x64) AppleWebKit/537.36 (KHTML, like Gecko) Chrome/119.0.0.0 Safari/537.36" version="22.1.3" etag="KQTpxNGwkM3gkAye0enO" type="github">
  <diagram name="Page-1" id="UR_x649thXYvuqroYOs3">
    <mxGraphModel>
      <root>
        <mxCell id="0" />
        <mxCell id="1" parent="0" />
      </root>
    </mxGraphModel>
  </diagram>
</mxfile>
